<svg xmlns="http://www.w3.org/2000/svg" width="600" height="600" viewBox="0 0 600 600">
  <defs>
    <radialGradient id="sky" cx="0.5" cy="0.4" r="0.8">
      <stop offset="0" stop-color="#7a4f35"/>
      <stop offset="0.6" stop-color="#4a2f20"/>
      <stop offset="1" stop-color="#2a1a12"/>
    </radialGradient>
    <radialGradient id="planet" cx="0.4" cy="0.35" r="0.75">
      <stop offset="0" stop-color="#e3a9a0"/>
      <stop offset="0.5" stop-color="#cc7a3b"/>
      <stop offset="1" stop-color="#7a4f35"/>
    </radialGradient>
  </defs>
  <rect width="600" height="600" fill="url(#sky)"/>
  <g opacity="0.85" fill="#f5ebd9">
    <circle cx="0" cy="0" r="0.6"/><circle cx="138" cy="89" r="1.2"/><circle cx="275" cy="179" r="1.7999999999999998"/><circle cx="413" cy="268" r="0.6"/><circle cx="550" cy="357" r="1.2"/><circle cx="88" cy="447" r="1.7999999999999998"/><circle cx="225" cy="536" r="0.6"/><circle cx="363" cy="25" r="1.2"/><circle cx="500" cy="114" r="1.7999999999999998"/><circle cx="38" cy="204" r="0.6"/><circle cx="175" cy="293" r="1.2"/><circle cx="313" cy="382" r="1.7999999999999998"/><circle cx="450" cy="472" r="0.6"/><circle cx="588" cy="561" r="1.2"/><circle cx="125" cy="50" r="1.7999999999999998"/><circle cx="263" cy="140" r="0.6"/><circle cx="400" cy="229" r="1.2"/><circle cx="538" cy="318" r="1.7999999999999998"/><circle cx="75" cy="407" r="0.6"/><circle cx="213" cy="497" r="1.2"/><circle cx="350" cy="586" r="1.7999999999999998"/><circle cx="488" cy="75" r="0.6"/><circle cx="25" cy="165" r="1.2"/><circle cx="163" cy="254" r="1.7999999999999998"/><circle cx="300" cy="343" r="0.6"/><circle cx="438" cy="433" r="1.2"/><circle cx="575" cy="522" r="1.7999999999999998"/><circle cx="113" cy="11" r="0.6"/><circle cx="250" cy="100" r="1.2"/><circle cx="388" cy="190" r="1.7999999999999998"/><circle cx="525" cy="279" r="0.6"/><circle cx="63" cy="368" r="1.2"/><circle cx="200" cy="458" r="1.7999999999999998"/><circle cx="338" cy="547" r="0.6"/><circle cx="475" cy="36" r="1.2"/><circle cx="13" cy="126" r="1.7999999999999998"/><circle cx="150" cy="215" r="0.6"/><circle cx="288" cy="304" r="1.2"/><circle cx="425" cy="393" r="1.7999999999999998"/><circle cx="563" cy="483" r="0.6"/>
  </g>
  <circle cx="300" cy="285" r="150" fill="url(#planet)"/>
  <ellipse cx="300" cy="300" rx="230" ry="60" fill="none" stroke="#f5ebd9" stroke-width="6" opacity="0.5" transform="rotate(-18 300 300)"/>
  <text x="300" y="520" text-anchor="middle" font-family="Georgia, serif" font-size="46" fill="#f5ebd9" letter-spacing="2">Pluto Projector</text>
</svg>